<?xml version="1.0" encoding="utf-8"?>
<svg 
    version="1.1" 
    id="Capa_1" 
    xmlns="http://www.w3.org/2000/svg" 
    xmlns:xlink="http://www.w3.org/1999/xlink" 
    x="0px" 
    y="0px" 
    viewBox="0 0 32 32" 
    style="enable-background:new 0 0 32 32; fill:#7daadf;" 
    xml:space="preserve"
>
    <rect id="ee-background" x="0" y="0" width="32" height="32" style="fill: white; fill-opacity: 0; pointer-events: none;"/><g transform="matrix(0.24833341798276706, 0, 0, 0.24833341798276706, -145.66339384005352, -7.8400074110899)"><g id="g-1" transform="matrix(1, 0, 0, 1, 0, 0)">
    <g id="g-2">
        <path class="st0" d="M652,46c27.6,0,50,22.4,50,50s-22.4,50-50,50s-50-22.4-50-50S624.4,46,652,46z" style="fill: rgb(255, 255, 255);"/>
    </g>
</g></g><g transform="matrix(0.9999997615814209, 0, 0, 0.9999997615814209, 0.000004210567567497492, 0.000004291534423828125)"><g>
    <g id="check_x5F_alt">
        <path d="M16,0C7.164,0,0,7.164,0,16s7.164,16,16,16s16-7.164,16-16S24.836,0,16,0z M13.52,23.383&#10;&#9;&#9;&#9;L6.158,16.02l2.828-2.828l4.533,4.535l9.617-9.617l2.828,2.828L13.52,23.383z" style="fill: rgb(118, 168, 226); stroke-opacity: 1; stroke: rgb(0, 0, 0); stroke-width: 0;"/>
    </g>
</g><g>
</g><g>
</g><g>
</g><g>
</g><g>
</g><g>
</g><g>
</g><g>
</g><g>
</g><g>
</g><g>
</g><g>
</g><g>
</g><g>
</g><g>
</g></g>
</svg>